<?xml version="1.0" encoding="UTF-8"?>
<svg width="177px" height="178px" viewBox="0 0 177 178" version="1.1" xmlns="http://www.w3.org/2000/svg" xmlns:xlink="http://www.w3.org/1999/xlink">
    <!-- Generator: Sketch 52.2 (67145) - http://www.bohemiancoding.com/sketch -->
    <title>license</title>
    <desc>Created with Sketch.</desc>
    <g id="Page-1" stroke="none" stroke-width="1" fill="none" fill-rule="evenodd">
        <g id="license" transform="translate(1.000000, -4.000000)">
            <polygon id="Fill-1" fill="#FFFFFF" points="0.2931 122.1419 102.2391 180.9999 174.2931 139.3999 72.3471 80.5409"></polygon>
            <polygon id="Stroke-2" stroke="#D5DAE0" stroke-width="2" stroke-linecap="round" stroke-linejoin="round" points="174.2927 139.3994 102.2387 181.0004 0.2927 122.1414 72.3467 80.5414"></polygon>
            <path d="M10.374,112.4956 L10.374,127.9616" id="Stroke-4" stroke="#D5DAE0" stroke-width="2" stroke-linecap="round" stroke-linejoin="round"></path>
            <polygon id="Fill-5" fill="#FFFFFF" points="0.2931 122.1419 102.2391 180.9999 102.2391 165.5339 0.2931 106.6749"></polygon>
            <polygon id="Stroke-6" stroke="#627386" stroke-width="2" stroke-linecap="round" stroke-linejoin="round" points="102.2384 181 102.2384 165.533 0.2924 106.675 0.2924 122.142"></polygon>
            <polygon id="Fill-8" fill="#F2F4F6" points="102.2388 165.5336 102.2388 181.0006 174.2928 139.3996 174.2928 123.9326"></polygon>
            <g id="Group-19" transform="translate(0.000000, 106.000000)" stroke-linecap="round" stroke-linejoin="round" stroke-width="2">
                <polygon id="Stroke-9" stroke="#627386" points="102.2384 75 102.2384 59.533 174.2924 17.933 174.2924 33.399"></polygon>
                <path d="M174.2927,25.666 L102.2387,67.267" id="Stroke-11" stroke="#D5DAE0"></path>
                <polygon id="Stroke-13" stroke="#627386" points="102.2384 75 102.2384 59.533 174.2924 17.933 174.2924 33.399"></polygon>
                <path d="M102.2384,67.2666 L0.2924,8.4086" id="Stroke-15" stroke="#D5DAE0"></path>
                <polygon id="Stroke-17" stroke="#627386" points="102.2384 75 102.2384 59.533 0.2924 0.675 0.2924 16.142"></polygon>
            </g>
            <polygon id="Fill-20" fill="#FFFFFF" points="174.2927 123.9326 102.2387 165.5336 0.2927 106.6746 72.3467 65.0746"></polygon>
            <polygon id="Stroke-21" stroke="#D5DAE0" stroke-width="2" stroke-linecap="round" stroke-linejoin="round" points="174.2927 123.9326 102.2387 165.5336 0.2927 106.6746 72.3467 65.0746"></polygon>
            <path d="M82.7583,83.1075 L31.5263,112.6865" id="Stroke-23" stroke="#D5DAE0" stroke-width="2" stroke-linecap="round" stroke-linejoin="round"></path>
            <path d="M83.7789,91.0039 L45.2039,113.2749" id="Stroke-24" stroke="#D5DAE0" stroke-width="2" stroke-linecap="round" stroke-linejoin="round"></path>
            <path d="M103.8119,95.2627 L52.5799,124.8417" id="Stroke-25" stroke="#D5DAE0" stroke-width="2" stroke-linecap="round" stroke-linejoin="round"></path>
            <path d="M111.161,99.5059 L59.929,129.0849" id="Stroke-26" stroke="#D5DAE0" stroke-width="2" stroke-linecap="round" stroke-linejoin="round"></path>
            <path d="M94.058,124.6709 L73.172,136.7299" id="Stroke-27" stroke="#D5DAE0" stroke-width="2" stroke-linecap="round" stroke-linejoin="round"></path>
            <path d="M124.4035,107.1514 L101.7435,120.2344" id="Stroke-28" stroke="#D5DAE0" stroke-width="2" stroke-linecap="round" stroke-linejoin="round"></path>
            <polygon id="Fill-29" fill="#F2F4F6" points="82.4284 70.8951 10.3744 112.4961 0.2924 106.6751 72.3474 65.0741"></polygon>
            <polygon id="Stroke-30" stroke="#627386" stroke-width="2" stroke-linecap="round" stroke-linejoin="round" points="82.4284 70.8951 10.3744 112.4961 0.2924 106.6751 72.3474 65.0741"></polygon>
            <polygon id="Stroke-32" stroke="#D5DAE0" stroke-width="2" stroke-linecap="round" stroke-linejoin="round" points="122.2935 140.9727 101.4075 153.0317 80.5205 140.9727 101.4075 128.9137"></polygon>
            <polygon id="Stroke-33" stroke="#D5DAE0" stroke-width="2" stroke-linecap="round" stroke-linejoin="round" points="141.6508 117.1089 118.9908 130.1919 112.7878 126.6099 135.4478 113.5279"></polygon>
            <path d="M125.6411,134.0313 L148.3011,120.9483" id="Stroke-34" stroke="#D5DAE0" stroke-width="2" stroke-linecap="round" stroke-linejoin="round"></path>
            <polygon id="Stroke-35" stroke="#627386" stroke-width="2" stroke-linecap="round" stroke-linejoin="round" points="174.2927 123.9326 102.2387 165.5336 0.2927 106.6746 72.3467 65.0746"></polygon>
            <polygon id="Fill-37" fill="#E9F6FE" points="165.9108 57.0254 122.3248 42.4964 113.2738 51.5464 156.8608 66.0754 152.7638 58.9794"></polygon>
            <polygon id="Stroke-38" stroke="#1B6DC6" stroke-width="2" stroke-linecap="round" stroke-linejoin="round" points="165.9108 57.0254 122.3248 42.4964 113.2738 51.5464 156.8608 66.0754 152.7638 58.9794"></polygon>
            <polygon id="Fill-39" fill="#BDE4FD" points="113.2742 51.5469 156.8602 66.0759 152.7632 58.9799 117.5722 47.2489"></polygon>
            <polygon id="Fill-40" fill="#E9F6FE" points="129.3543 71.3472 142.7053 74.2482 130.1233 61.6652 117.5413 49.0832 109.7033 51.6962 101.8653 54.3082 114.4473 66.8902 127.0303 79.4732"></polygon>
            <polygon id="Stroke-41" stroke="#1B6DC6" stroke-width="2" stroke-linecap="round" stroke-linejoin="round" points="129.3543 71.3472 142.7053 74.2482 130.1233 61.6652 117.5413 49.0832 109.7033 51.6962 101.8653 54.3082 114.4473 66.8902 127.0303 79.4732"></polygon>
            <polygon id="Fill-42" fill="#BDE4FD" points="101.8655 54.3086 114.4475 66.8906 127.0305 79.4736 129.3545 71.3476 109.7035 51.6956"></polygon>
            <polygon id="Stroke-43" stroke="#1B6DC6" stroke-width="2" stroke-linecap="round" stroke-linejoin="round" points="165.9108 57.0254 122.3248 42.4964 113.2738 51.5464 156.8608 66.0754 152.7638 58.9794"></polygon>
            <polygon id="Stroke-44" stroke="#1B6DC6" stroke-width="2" stroke-linecap="round" stroke-linejoin="round" points="129.3543 71.3472 142.7053 74.2482 130.1233 61.6652 117.5413 49.0832 109.7033 51.6962 101.8653 54.3082 114.4473 66.8902 127.0303 79.4732"></polygon>
            <g id="Group-79" transform="translate(67.000000, 0.000000)">
                <path d="M39.0989,47.48 C37.5889,47.037 35.8819,46.786 34.0729,46.786 C32.2629,46.786 30.5569,47.037 29.0469,47.48 C28.5209,46.55 27.6219,45.676 26.3429,44.937 C25.0629,44.199 23.5489,43.679 21.9389,43.376 C22.7059,42.504 23.1409,41.519 23.1409,40.474 C23.1409,39.43 22.7059,38.444 21.9389,37.572 C23.5489,37.269 25.0629,36.75 26.3429,36.011 C27.6219,35.272 28.5209,34.398 29.0469,33.469 C30.5569,33.912 32.2629,34.163 34.0729,34.163 C35.8819,34.163 37.5889,33.912 39.0989,33.469 C39.6239,34.398 40.5229,35.272 41.8029,36.011 C43.0819,36.75 44.5969,37.269 46.2069,37.572 C45.4399,38.444 45.0049,39.43 45.0049,40.474 C45.0049,41.519 45.4399,42.504 46.2069,43.376 C44.5969,43.679 43.0819,44.198 41.8029,44.937 C40.5229,45.676 39.6239,46.55 39.0989,47.48 M57.5219,26.936 C54.0349,24.923 48.8079,24.528 44.6369,25.75 C43.1829,23.183 39.0039,21.328 34.0729,21.328 C29.1409,21.328 24.9629,23.183 23.5089,25.75 C19.3369,24.528 14.1109,24.923 10.6239,26.936 C7.1369,28.949 6.4539,31.967 8.5689,34.375 C4.1229,35.214 0.9109,37.627 0.9109,40.474 C0.9109,43.321 4.1229,45.734 8.5689,46.573 C6.4539,48.982 7.1369,52 10.6239,54.013 C14.1109,56.026 19.3369,56.42 23.5089,55.199 C24.9629,57.766 29.1409,59.62 34.0729,59.62 C39.0039,59.62 43.1829,57.766 44.6369,55.199 C48.8079,56.42 54.0349,56.026 57.5219,54.013 C61.0089,52 61.6919,48.982 59.5769,46.573 C64.0219,45.734 67.2349,43.321 67.2349,40.474 C67.2349,37.627 64.0219,35.214 59.5769,34.375 C61.6919,31.967 61.0089,28.949 57.5219,26.936" id="Fill-45" fill="#BDE4FD"></path>
                <path d="M39.0989,47.48 C37.5889,47.037 35.8819,46.786 34.0729,46.786 C32.2629,46.786 30.5569,47.037 29.0469,47.48 C28.5209,46.55 27.6219,45.676 26.3429,44.937 C25.0629,44.199 23.5489,43.679 21.9389,43.376 C22.7059,42.504 23.1409,41.519 23.1409,40.474 C23.1409,39.43 22.7059,38.444 21.9389,37.572 C23.5489,37.269 25.0629,36.75 26.3429,36.011 C27.6219,35.272 28.5209,34.398 29.0469,33.469 C30.5569,33.912 32.2629,34.163 34.0729,34.163 C35.8819,34.163 37.5889,33.912 39.0989,33.469 C39.6239,34.398 40.5229,35.272 41.8029,36.011 C43.0819,36.75 44.5969,37.269 46.2069,37.572 C45.4399,38.444 45.0049,39.43 45.0049,40.474 C45.0049,41.519 45.4399,42.504 46.2069,43.376 C44.5969,43.679 43.0819,44.198 41.8029,44.937 C40.5229,45.676 39.6239,46.55 39.0989,47.48 Z M57.5219,26.936 C54.0349,24.923 48.8079,24.528 44.6369,25.75 C43.1829,23.183 39.0039,21.328 34.0729,21.328 C29.1409,21.328 24.9629,23.183 23.5089,25.75 C19.3369,24.528 14.1109,24.923 10.6239,26.936 C7.1369,28.949 6.4539,31.967 8.5689,34.375 C4.1229,35.214 0.9109,37.627 0.9109,40.474 C0.9109,43.321 4.1229,45.734 8.5689,46.573 C6.4539,48.982 7.1369,52 10.6239,54.013 C14.1109,56.026 19.3369,56.42 23.5089,55.199 C24.9629,57.766 29.1409,59.62 34.0729,59.62 C39.0039,59.62 43.1829,57.766 44.6369,55.199 C48.8079,56.42 54.0349,56.026 57.5219,54.013 C61.0089,52 61.6919,48.982 59.5769,46.573 C64.0219,45.734 67.2349,43.321 67.2349,40.474 C67.2349,37.627 64.0219,35.214 59.5769,34.375 C61.6919,31.967 61.0089,28.949 57.5219,26.936 Z" id="Stroke-47" stroke="#1B6DC6" stroke-width="2" stroke-linecap="round" stroke-linejoin="round"></path>
                <path d="M7.9085,43.8384 C5.0775,43.1864 2.8245,41.8804 1.6995,40.2434 C1.4625,39.8984 0.9125,40.0424 0.9105,40.4614 L0.9105,40.4744 C0.9105,42.9674 3.3785,45.1244 6.9765,46.1854 C7.2055,46.2534 7.4445,46.1154 7.5065,45.8854 C7.6335,45.4164 7.8485,44.9534 8.1555,44.5064 C8.3285,44.2554 8.2065,43.9074 7.9085,43.8384" id="Fill-49" fill="#91D2FB"></path>
                <path d="M57.5219,51.416 C54.0349,53.429 48.8079,53.824 44.6369,52.603 C43.1829,55.169 39.0039,57.024 34.0729,57.024 C29.1419,57.024 24.9629,55.169 23.5089,52.603 C19.3369,53.824 14.1109,53.429 10.6239,51.416 C9.0299,50.496 8.0289,49.366 7.6059,48.18 C6.8799,50.222 7.8789,52.428 10.6239,54.013 C14.1109,56.026 19.3369,56.42 23.5089,55.199 C24.9629,57.766 29.1419,59.62 34.0729,59.62 C39.0039,59.62 43.1829,57.766 44.6369,55.199 C48.8079,56.42 54.0349,56.026 57.5219,54.013 C60.2659,52.428 61.2659,50.222 60.5389,48.18 C60.1159,49.366 59.1159,50.496 57.5219,51.416" id="Fill-51" fill="#91D2FB"></path>
                <path d="M59.99,44.5069 C60.297,44.9539 60.512,45.4159 60.639,45.8849 C60.701,46.1149 60.94,46.2529 61.169,46.1859 C64.767,45.1239 67.235,42.9679 67.235,40.4739 L67.235,40.4609 C67.233,40.0419 66.683,39.8979 66.446,40.2429 C65.322,41.8799 63.068,43.1859 60.237,43.8389 C59.939,43.9069 59.817,44.2549 59.99,44.5069" id="Fill-53" fill="#91D2FB"></path>
                <path d="M39.0989,47.48 C37.5889,47.037 35.8819,46.786 34.0729,46.786 C32.2629,46.786 30.5569,47.037 29.0469,47.48 C28.5209,46.55 27.6219,45.676 26.3429,44.937 C25.0629,44.199 23.5489,43.679 21.9389,43.376 C22.7059,42.504 23.1409,41.519 23.1409,40.474 C23.1409,39.43 22.7059,38.444 21.9389,37.572 C23.5489,37.269 25.0629,36.75 26.3429,36.011 C27.6219,35.272 28.5209,34.398 29.0469,33.469 C30.5569,33.912 32.2629,34.163 34.0729,34.163 C35.8819,34.163 37.5889,33.912 39.0989,33.469 C39.6239,34.398 40.5229,35.272 41.8029,36.011 C43.0819,36.75 44.5969,37.269 46.2069,37.572 C45.4399,38.444 45.0049,39.43 45.0049,40.474 C45.0049,41.519 45.4399,42.504 46.2069,43.376 C44.5969,43.679 43.0819,44.198 41.8029,44.937 C40.5229,45.676 39.6239,46.55 39.0989,47.48 Z M57.5219,26.936 C54.0349,24.923 48.8079,24.528 44.6369,25.75 C43.1829,23.183 39.0039,21.328 34.0729,21.328 C29.1409,21.328 24.9629,23.183 23.5089,25.75 C19.3369,24.528 14.1109,24.923 10.6239,26.936 C7.1369,28.949 6.4539,31.967 8.5689,34.375 C4.1229,35.214 0.9109,37.627 0.9109,40.474 C0.9109,43.321 4.1229,45.734 8.5689,46.573 C6.4539,48.982 7.1369,52 10.6239,54.013 C14.1109,56.026 19.3369,56.42 23.5089,55.199 C24.9629,57.766 29.1409,59.62 34.0729,59.62 C39.0039,59.62 43.1829,57.766 44.6369,55.199 C48.8079,56.42 54.0349,56.026 57.5219,54.013 C61.0089,52 61.6919,48.982 59.5769,46.573 C64.0219,45.734 67.2349,43.321 67.2349,40.474 C67.2349,37.627 64.0219,35.214 59.5769,34.375 C61.6919,31.967 61.0089,28.949 57.5219,26.936 Z" id="Stroke-55" stroke="#1B6DC6" stroke-width="2" stroke-linecap="round" stroke-linejoin="round"></path>
                <path d="M52.9028,39.0059 C53.0168,36.1379 51.1938,33.2489 47.4028,31.0599 C40.0408,26.8099 28.1048,26.8099 20.7428,31.0599 C16.9518,33.2489 15.1288,36.1379 15.2418,39.0059 C15.2358,39.1729 15.2358,39.3389 15.2418,39.5059 C15.2358,39.6729 15.2358,39.8389 15.2418,40.0059 C15.2358,40.1729 15.2358,40.3389 15.2418,40.5059 C15.1288,43.3739 16.9518,46.2629 20.7428,48.4519 C28.1048,52.7019 40.0408,52.7019 47.4028,48.4519 C51.1938,46.2629 53.0168,43.3739 52.9028,40.5059 C52.9098,40.3389 52.9098,40.1729 52.9028,40.0059 C52.9098,39.8389 52.9098,39.6729 52.9028,39.5059 C52.9098,39.3389 52.9098,39.1729 52.9028,39.0059" id="Fill-57" fill="#91D2FB"></path>
                <path d="M47.4024,30.5601 C54.7644,34.8101 54.7644,41.7011 47.4024,45.9521 C40.0404,50.2021 28.1044,50.2021 20.7434,45.9521 C13.3814,41.7011 13.3814,34.8101 20.7434,30.5601 C28.1044,26.3101 40.0404,26.3101 47.4024,30.5601" id="Fill-59" fill="#91D2FB"></path>
                <path d="M46.6482,30.7588 C53.5932,34.7688 53.5932,41.2698 46.6482,45.2798 C39.7032,49.2898 28.4422,49.2898 21.4972,45.2798 C14.5522,41.2698 14.5522,34.7688 21.4972,30.7588 C28.4422,26.7488 39.7032,26.7488 46.6482,30.7588" id="Fill-61" fill="#E9F6FE"></path>
                <path d="M46.6482,30.7588 C53.5932,34.7688 53.5932,41.2698 46.6482,45.2798 C39.7032,49.2898 28.4422,49.2898 21.4972,45.2798 C14.5522,41.2698 14.5522,34.7688 21.4972,30.7588 C28.4422,26.7488 39.7032,26.7488 46.6482,30.7588 Z" id="Stroke-63" stroke="#1B6DC6" stroke-width="2" stroke-linecap="round" stroke-linejoin="round"></path>
                <path d="M42.5857,30.1919 C47.2877,32.9059 47.2877,37.3069 42.5857,40.0219 C37.8837,42.7359 30.2617,42.7359 25.5597,40.0219 C20.8577,37.3069 20.8577,32.9059 25.5597,30.1919 C30.2617,27.4769 37.8837,27.4769 42.5857,30.1919" id="Fill-65" fill="#FFFFFF"></path>
                <path d="" id="Stroke-67" stroke="#1B6DC6" stroke-width="2" stroke-linecap="round" stroke-linejoin="round"></path>
                <path d="M0.9107,34.835 L0.9107,3.819" id="Stroke-69" stroke="#1B6DC6" stroke-width="2" stroke-linecap="round" stroke-linejoin="round" stroke-dasharray="0,5.639"></path>
                <path d="" id="Stroke-73" stroke="#1B6DC6" stroke-width="2" stroke-linecap="round" stroke-linejoin="round"></path>
                <path d="M98.9107,51.3863 L98.9107,20.3703" id="Stroke-75" stroke="#1B6DC6" stroke-width="2" stroke-linecap="round" stroke-linejoin="round" stroke-dasharray="0,5.639"></path>
                <path d="" id="Stroke-77" stroke="#1B6DC6" stroke-width="2" stroke-linecap="round" stroke-linejoin="round"></path>
            </g>
        </g>
    </g>
</svg>