<?xml version="1.0" encoding="UTF-8"?>
<svg width="4px" height="8px" viewBox="0 0 4 8" version="1.1" xmlns="http://www.w3.org/2000/svg" xmlns:xlink="http://www.w3.org/1999/xlink">
    <!-- Generator: Sketch 52.2 (67145) - http://www.bohemiancoding.com/sketch -->
    <title>Double Arrow</title>
    <desc>Created with Sketch.</desc>
    <g id="Final" stroke="none" stroke-width="1" fill="none" fill-rule="evenodd">
        <g id="MultipleLicenses_step1" transform="translate(-1094.000000, -296.000000)" fill="#1B2025">
            <path d="M1094.50001,298.71722 C1094.38299,298.71722 1094.26967,298.676171 1094.17979,298.601221 C1093.96771,298.424367 1093.93916,298.109075 1094.11601,297.896997 L1095.54801,296.179789 C1095.56731,296.156652 1095.58865,296.135306 1095.61179,296.116011 C1095.82387,295.939157 1096.13916,295.967711 1096.31602,296.179789 L1097.74802,297.896997 C1097.82297,297.986874 1097.86402,298.100193 1097.86402,298.21722 C1097.86402,298.493363 1097.64016,298.71722 1097.36402,298.71722 L1094.50001,298.71722 Z M1097.36402,300.715828 C1097.48105,300.715828 1097.59437,300.756878 1097.68424,300.831827 C1097.89632,301.008682 1097.92487,301.323974 1097.74802,301.536052 L1096.31602,303.25326 C1096.29672,303.276397 1096.27538,303.297743 1096.25224,303.317037 C1096.04016,303.493892 1095.72487,303.465338 1095.54801,303.25326 L1094.11601,301.536052 C1094.04106,301.446175 1094.00001,301.332856 1094.00001,301.215828 C1094.00001,300.939686 1094.22387,300.715828 1094.50001,300.715828 L1097.36402,300.715828 Z" id="Double-Arrow"></path>
        </g>
    </g>
</svg>